<svg width="89" height="230" viewBox="0 0 89 230" fill="none" xmlns="http://www.w3.org/2000/svg">
<path d="M4.4723 41.5837L2.4723 41.5873L4.4723 41.5837ZM16.5115 29.562L16.5181 27.562L16.5181 27.562L16.5115 29.562ZM85.4113 31.2016C86.1949 30.4231 86.199 29.1568 85.4205 28.3732L72.7343 15.6037C71.9558 14.8201 70.6895 14.816 69.9059 15.5945C69.1223 16.373 69.1182 17.6393 69.8967 18.4229L81.1733 29.7736L69.8226 41.0502C69.039 41.8287 69.0349 43.095 69.8134 43.8786C70.5919 44.6622 71.8582 44.6663 72.6418 43.8878L85.4113 31.2016ZM6.81298 229.519L6.79879 221.688L2.7988 221.696L2.81299 229.526L6.81298 229.519ZM6.7704 206.027L6.74201 190.365L2.74201 190.372L2.77041 206.034L6.7704 206.027ZM6.71362 174.704L6.68523 159.042L2.68523 159.049L2.71362 174.711L6.71362 174.704ZM6.65684 143.38L6.62845 127.719L2.62845 127.726L2.65684 143.388L6.65684 143.38ZM6.60005 112.057L6.57166 96.3956L2.57167 96.4028L2.60006 112.064L6.60005 112.057ZM6.54327 80.734L6.51488 65.0724L2.51489 65.0797L2.54328 80.7413L6.54327 80.734ZM6.48649 49.4109L6.4723 41.5801L2.4723 41.5873L2.4865 49.4181L6.48649 49.4109ZM6.4723 41.5801C6.46982 40.2157 6.73952 38.9197 7.22817 37.7396L3.53244 36.2093C2.84553 37.8683 2.46886 39.6862 2.4723 41.5873L6.4723 41.5801ZM12.6634 32.3122C13.8443 31.8253 15.1406 31.5575 16.505 31.562L16.5181 27.562C14.6169 27.5558 12.7985 27.9298 11.1386 28.6143L12.6634 32.3122ZM16.505 31.562L24.9413 31.5896L24.9544 27.5896L16.5181 27.562L16.505 31.562ZM41.8138 31.6448L58.6863 31.7L58.6994 27.7L41.8269 27.6448L41.8138 31.6448ZM75.5589 31.7552L83.9952 31.7828L84.0082 27.7828L75.572 27.7552L75.5589 31.7552ZM4.4723 41.5837L0.472306 41.5909L4.4723 41.5837ZM16.5115 29.562L16.5246 25.562L16.5246 25.562L16.5115 29.562ZM86.8209 32.6205C88.3881 31.0635 88.3963 28.5308 86.8394 26.9636L61.4669 1.42465C59.91 -0.142546 57.3773 -0.150833 55.8101 1.40615C54.2429 2.96312 54.2346 5.49577 55.7916 7.06297L78.3449 29.7643L55.6436 52.3176C54.0764 53.8745 54.0681 56.4072 55.625 57.9744C57.182 59.5416 59.7147 59.5499 61.2819 57.9929L86.8209 32.6205ZM8.81298 229.515L8.79879 221.685L0.7988 221.699L0.812995 229.53L8.81298 229.515ZM8.7704 206.023L8.742 190.361L0.742018 190.376L0.770409 206.038L8.7704 206.023ZM8.71361 174.7L8.68522 159.038L0.685237 159.053L0.713627 174.714L8.71361 174.7ZM8.65683 143.377L8.62844 127.715L0.628455 127.73L0.656846 143.391L8.65683 143.377ZM8.60005 112.054L8.57166 96.392L0.571674 96.4065L0.600064 112.068L8.60005 112.054ZM8.54327 80.7304L8.51488 65.0688L0.514892 65.0833L0.543283 80.7449L8.54327 80.7304ZM8.48649 49.4072L8.47229 41.5764L0.472306 41.5909L0.486502 49.4217L8.48649 49.4072ZM8.47229 41.5764C8.47031 40.4804 8.68651 39.4454 9.07603 38.5047L1.68458 35.4442C0.898542 37.3426 0.468373 39.4214 0.472306 41.5909L8.47229 41.5764ZM13.4258 34.1612C14.3671 33.7731 15.4025 33.5584 16.4985 33.562L16.5246 25.562C14.3551 25.5549 12.2757 25.982 10.3762 26.7653L13.4258 34.1612ZM16.4985 33.562L24.9347 33.5896L24.9609 25.5896L16.5246 25.562L16.4985 33.562ZM41.8073 33.6448L58.6798 33.7L58.706 25.7L41.8334 25.6448L41.8073 33.6448ZM75.5523 33.7552L83.9886 33.7828L84.0148 25.7828L75.5785 25.7552L75.5523 33.7552Z" fill="#1400FF"/>
</svg>
