<svg width="89" height="230" viewBox="0 0 89 230" fill="none" xmlns="http://www.w3.org/2000/svg">
<path d="M4.94203 41.3542L0.942033 41.3614L4.94203 41.3542ZM16.9813 29.3325L16.9944 25.3325L16.9944 25.3325L16.9813 29.3325ZM87.2906 32.391C88.8578 30.834 88.8661 28.3014 87.3091 26.7342L61.9367 1.19516C60.3797 -0.372039 57.8471 -0.380325 56.2799 1.17665C54.7127 2.73363 54.7044 5.26628 56.2613 6.83348L78.8146 29.5348L56.1133 52.0881C54.5461 53.645 54.5378 56.1777 56.0948 57.7449C57.6517 59.3121 60.1844 59.3204 61.7516 57.7634L87.2906 32.391ZM9.28271 229.286L8.94202 41.3469L0.942033 41.3614L1.28272 229.3L9.28271 229.286ZM16.9682 33.3325L84.4583 33.5533L84.4845 25.5533L16.9944 25.3325L16.9682 33.3325ZM8.94202 41.3469C8.93398 36.9128 12.534 33.318 16.9682 33.3325L16.9944 25.3325C8.12606 25.3035 0.925957 32.4931 0.942033 41.3614L8.94202 41.3469Z" fill="#1400FF"/>
</svg>
