<svg width="68" height="58" viewBox="0 0 68 58" fill="none" xmlns="http://www.w3.org/2000/svg">
<path d="M15.6818 46H2.25V11.0909H15.5455C19.1364 11.0909 22.2386 11.7898 24.8523 13.1875C27.4773 14.5739 29.5 16.5739 30.9205 19.1875C32.3523 21.7898 33.0682 24.9091 33.0682 28.5455C33.0682 32.1818 32.358 35.3068 30.9375 37.9205C29.517 40.5227 27.5057 42.5227 24.9034 43.9205C22.3011 45.3068 19.2273 46 15.6818 46ZM11.7273 37.9545H15.3409C17.0682 37.9545 18.5398 37.6761 19.7557 37.1193C20.983 36.5625 21.9148 35.6023 22.5511 34.2386C23.1989 32.875 23.5227 30.9773 23.5227 28.5455C23.5227 26.1136 23.1932 24.2159 22.5341 22.8523C21.8864 21.4886 20.9318 20.5284 19.6705 19.9716C18.4205 19.4148 16.8864 19.1364 15.0682 19.1364H11.7273V37.9545ZM56.2713 22C56.1804 20.8636 55.7543 19.9773 54.9929 19.3409C54.2429 18.7045 53.1009 18.3864 51.5668 18.3864C50.5895 18.3864 49.7884 18.5057 49.1634 18.7443C48.5497 18.9716 48.0952 19.2841 47.7997 19.6818C47.5043 20.0795 47.3509 20.5341 47.3395 21.0455C47.3168 21.4659 47.3906 21.8466 47.5611 22.1875C47.7429 22.517 48.027 22.8182 48.4134 23.0909C48.7997 23.3523 49.294 23.5909 49.8963 23.8068C50.4986 24.0227 51.2145 24.2159 52.044 24.3864L54.9077 25C56.8395 25.4091 58.4929 25.9489 59.8679 26.6193C61.2429 27.2898 62.3679 28.0795 63.2429 28.9886C64.1179 29.8864 64.7599 30.8977 65.169 32.0227C65.5895 33.1477 65.8054 34.375 65.8168 35.7045C65.8054 38 65.2315 39.9432 64.0952 41.5341C62.9588 43.125 61.3338 44.3352 59.2202 45.1648C57.1179 45.9943 54.5895 46.4091 51.6349 46.4091C48.6009 46.4091 45.9531 45.9602 43.6918 45.0625C41.4418 44.1648 39.6918 42.7841 38.4418 40.9205C37.2031 39.0455 36.5781 36.6477 36.5668 33.7273H45.5668C45.6236 34.7955 45.8906 35.6932 46.3679 36.4205C46.8452 37.1477 47.5156 37.6989 48.3793 38.0739C49.2543 38.4489 50.294 38.6364 51.4986 38.6364C52.5099 38.6364 53.3565 38.5114 54.0384 38.2614C54.7202 38.0114 55.2372 37.6648 55.5895 37.2216C55.9418 36.7784 56.1236 36.2727 56.1349 35.7045C56.1236 35.1705 55.9474 34.7045 55.6065 34.3068C55.277 33.8977 54.7315 33.5341 53.9702 33.2159C53.2088 32.8864 52.1804 32.5795 50.8849 32.2955L47.4077 31.5455C44.3168 30.875 41.8793 29.7557 40.0952 28.1875C38.3224 26.608 37.4418 24.4545 37.4531 21.7273C37.4418 19.5114 38.0327 17.5739 39.2259 15.9148C40.4304 14.2443 42.0952 12.9432 44.2202 12.0114C46.3565 11.0795 48.8054 10.6136 51.5668 10.6136C54.3849 10.6136 56.8224 11.0852 58.8793 12.0284C60.9361 12.9716 62.5213 14.3011 63.6349 16.017C64.7599 17.7216 65.3281 19.7159 65.3395 22H56.2713Z" fill="#1400FF"/>
<rect x="4" y="15" width="22" height="28" fill="#1400FF"/>
<path d="M17 19L20.0447 24.8093L26.5106 25.9098L21.9265 30.6007L22.8779 37.0902L17 34.18L11.1221 37.0902L12.0735 30.6007L7.48944 25.9098L13.9553 24.8093L17 19Z" fill="#F5F5F5"/>
</svg>
