<svg width="1167" height="1459" viewBox="0 0 1167 1459" fill="none" xmlns="http://www.w3.org/2000/svg">
<g clip-path="url(#clip0_55_2)">
<rect width="1167" height="1459" fill="#FAFCF3"/>
<path d="M432.5 120L442.639 140.247L465.311 143.493L448.906 159.253L452.779 181.507L432.5 171L412.221 181.507L416.094 159.253L399.689 143.493L422.361 140.247L432.5 120Z" fill="#1400FF"/>
<path d="M865 595L872.641 610.483L889.727 612.966L877.364 625.017L880.282 642.034L865 634L849.718 642.034L852.636 625.017L840.273 612.966L857.359 610.483L865 595Z" fill="#1400FF"/>
<path d="M97 760L101.702 769.528L112.217 771.056L104.608 778.472L106.405 788.944L97 784L87.5954 788.944L89.3915 778.472L81.7831 771.056L92.2977 769.528L97 760Z" fill="#1400FF"/>
<path d="M1067 1125L1071.7 1134.53L1082.22 1136.06L1074.61 1143.47L1076.4 1153.94L1067 1149L1057.6 1153.94L1059.39 1143.47L1051.78 1136.06L1062.3 1134.53L1067 1125Z" fill="#1400FF"/>
<path d="M903 679L910.641 694.483L927.727 696.966L915.364 709.017L918.282 726.034L903 718L887.718 726.034L890.636 709.017L878.273 696.966L895.359 694.483L903 679Z" fill="#FFE1DB"/>
<path d="M1001.5 653L1016.05 682.179L1048.58 686.858L1025.04 709.571L1030.6 741.642L1001.5 726.5L972.405 741.642L977.961 709.571L954.423 686.858L986.952 682.179L1001.5 653Z" fill="#DCDBFF"/>
<path d="M217.5 139L222.937 150.017L235.095 151.783L226.297 160.358L228.374 172.467L217.5 166.75L206.626 172.467L208.703 160.358L199.905 151.783L212.063 150.017L217.5 139Z" fill="#DCDBFF"/>
<path d="M910 1010L917.935 1026.08L935.679 1028.66L922.839 1041.17L925.87 1058.84L910 1050.5L894.13 1058.84L897.161 1041.17L884.321 1028.66L902.065 1026.08L910 1010Z" fill="#FFE1DB"/>
<path d="M373.5 227L380.994 242.185L397.752 244.62L385.626 256.44L388.489 273.13L373.5 265.25L358.511 273.13L361.374 256.44L349.248 244.62L366.006 242.185L373.5 227Z" fill="#00CB8E"/>
<path d="M31.5 804L40.7576 822.758L61.4583 825.766L46.4791 840.367L50.0152 860.984L31.5 851.25L12.9848 860.984L16.5209 840.367L1.54172 825.766L22.2424 822.758L31.5 804Z" fill="#FEE5A5"/>
<path d="M499.5 253L504.643 263.421L516.143 265.092L507.822 273.204L509.786 284.658L499.5 279.25L489.214 284.658L491.178 273.204L482.857 265.092L494.357 263.421L499.5 253Z" fill="#FEE5A5"/>
<path d="M842 1125L854.05 1149.42L880.993 1153.33L861.497 1172.33L866.099 1199.17L842 1186.5L817.901 1199.17L822.503 1172.33L803.007 1153.33L829.95 1149.42L842 1125Z" fill="#FEE5A5"/>
<path d="M1013.5 977L1018.64 987.719L1030.14 989.438L1021.82 997.781L1023.79 1009.56L1013.5 1004L1003.21 1009.56L1005.18 997.781L996.857 989.438L1008.36 987.719L1013.5 977Z" fill="#00CB8E"/>
<path d="M1080 403L1094.4 432.179L1126.6 436.858L1103.3 459.571L1108.8 491.642L1080 476.5L1051.2 491.642L1056.7 459.571L1033.4 436.858L1065.6 432.179L1080 403Z" fill="#FEE5A5"/>
<path d="M341.5 507L346.643 517.719L358.143 519.438L349.822 527.781L351.786 539.562L341.5 534L331.214 539.562L333.178 527.781L324.857 519.438L336.357 517.719L341.5 507Z" fill="#FFE1DB"/>
<path d="M1145.5 1426L1135.36 1405.75L1112.69 1402.51L1129.09 1386.75L1125.22 1364.49L1145.5 1375L1165.78 1364.49L1161.91 1386.75L1178.31 1402.51L1155.64 1405.75L1145.5 1426Z" fill="#1400FF"/>
<path d="M713 951L705.359 935.517L688.273 933.034L700.636 920.983L697.718 903.966L713 912L728.282 903.966L725.364 920.983L737.727 933.034L720.641 935.517L713 951Z" fill="#1400FF"/>
<path d="M374 977L366.359 961.517L349.273 959.034L361.636 946.983L358.718 929.966L374 938L389.282 929.966L386.364 946.983L398.727 959.034L381.641 961.517L374 977Z" fill="#1400FF"/>
<path d="M511 421L506.298 411.472L495.783 409.944L503.392 402.528L501.595 392.056L511 397L520.405 392.056L518.608 402.528L526.217 409.944L515.702 411.472L511 421Z" fill="#1400FF"/>
<path d="M675 867L667.359 851.517L650.273 849.034L662.636 836.983L659.718 819.966L675 828L690.282 819.966L687.364 836.983L699.727 849.034L682.641 851.517L675 867Z" fill="#FFE1DB"/>
<path d="M576.5 893L561.952 863.821L529.423 859.142L552.961 836.429L547.405 804.358L576.5 819.5L605.595 804.358L600.039 836.429L623.577 859.142L591.048 863.821L576.5 893Z" fill="#DCDBFF"/>
<path d="M668 536L660.065 519.922L642.321 517.343L655.161 504.828L652.13 487.157L668 495.5L683.87 487.157L680.839 504.828L693.679 517.343L675.935 519.922L668 536Z" fill="#FFE1DB"/>
<path d="M1078.5 1293L1073.36 1282.58L1061.86 1280.91L1070.18 1272.8L1068.21 1261.34L1078.5 1266.75L1088.79 1261.34L1086.82 1272.8L1095.14 1280.91L1083.64 1282.58L1078.5 1293Z" fill="#FEE5A5"/>
<path d="M736 421L723.95 396.585L697.007 392.67L716.503 373.665L711.901 346.83L736 359.5L760.099 346.83L755.497 373.665L774.993 392.67L748.05 396.585L736 421Z" fill="#FEE5A5"/>
<path d="M564.5 569L559.357 558.281L547.857 556.562L556.178 548.219L554.214 536.438L564.5 542L574.786 536.438L572.822 548.219L581.143 556.562L569.643 558.281L564.5 569Z" fill="#00CB8E"/>
<path d="M498 1143L483.599 1113.82L451.398 1109.14L474.699 1086.43L469.199 1054.36L498 1069.5L526.801 1054.36L521.301 1086.43L544.602 1109.14L512.401 1113.82L498 1143Z" fill="#FEE5A5"/>
<path d="M743 1409.5L722.753 1419.64L719.507 1442.31L703.747 1425.91L681.493 1429.78L692 1409.5L681.493 1389.22L703.747 1393.09L719.507 1376.69L722.753 1399.36L743 1409.5Z" fill="#1400FF"/>
<path d="M103 1074L93.4721 1078.7L91.9443 1089.22L84.5279 1081.61L74.0557 1083.4L79 1074L74.0557 1064.6L84.5279 1066.39L91.9443 1058.78L93.4721 1069.3L103 1074Z" fill="#1400FF"/>
<path d="M724 1194.5L712.983 1199.94L711.217 1212.09L702.642 1203.3L690.533 1205.37L696.25 1194.5L690.533 1183.63L702.642 1185.7L711.217 1176.91L712.983 1189.06L724 1194.5Z" fill="#DCDBFF"/>
<path d="M636 1350.5L620.815 1357.99L618.38 1374.75L606.56 1362.63L589.87 1365.49L597.75 1350.5L589.87 1335.51L606.56 1338.37L618.38 1326.25L620.815 1343.01L636 1350.5Z" fill="#00CB8E"/>
<path d="M59 1008.5L40.242 1017.76L37.234 1038.46L22.633 1023.48L2.01596 1027.02L11.75 1008.5L2.01596 989.985L22.633 993.521L37.234 978.542L40.242 999.242L59 1008.5Z" fill="#FEE5A5"/>
<path d="M356 1318.5L345.281 1323.64L343.562 1335.14L335.219 1326.82L323.438 1328.79L329 1318.5L323.438 1308.21L335.219 1310.18L343.562 1301.86L345.281 1313.36L356 1318.5Z" fill="#FFE1DB"/>
<path d="M340 1244L332.359 1228.52L315.273 1226.03L327.636 1213.98L324.718 1196.97L340 1205L355.282 1196.97L352.364 1213.98L364.727 1226.03L347.641 1228.52L340 1244Z" fill="#1400FF"/>
<path d="M1108 1079L1103.3 1069.47L1092.78 1067.94L1100.39 1060.53L1098.6 1050.06L1108 1055L1117.4 1050.06L1115.61 1060.53L1123.22 1067.94L1112.7 1069.47L1108 1079Z" fill="#1400FF"/>
<path d="M138 714L133.298 704.472L122.783 702.944L130.392 695.528L128.595 685.056L138 690L147.405 685.056L145.608 695.528L153.217 702.944L142.702 704.472L138 714Z" fill="#1400FF"/>
<path d="M302 1160L294.359 1144.52L277.273 1142.03L289.636 1129.98L286.718 1112.97L302 1121L317.282 1112.97L314.364 1129.98L326.727 1142.03L309.641 1144.52L302 1160Z" fill="#FFE1DB"/>
<path d="M203.5 1186L188.952 1156.82L156.423 1152.14L179.961 1129.43L174.405 1097.36L203.5 1112.5L232.595 1097.36L227.039 1129.43L250.577 1152.14L218.048 1156.82L203.5 1186Z" fill="#DCDBFF"/>
<path d="M295 829L287.065 812.922L269.321 810.343L282.161 797.828L279.13 780.157L295 788.5L310.87 780.157L307.839 797.828L320.679 810.343L302.935 812.922L295 829Z" fill="#FFE1DB"/>
<path d="M81 230L73.0649 213.922L55.3215 211.343L68.1607 198.828L65.1298 181.157L81 189.5L96.8702 181.157L93.8393 198.828L106.679 211.343L88.9351 213.922L81 230Z" fill="#FFE1DB"/>
<path d="M1173.5 1035L1164.24 1016.24L1143.54 1013.23L1158.52 998.633L1154.98 978.016L1173.5 987.75L1192.02 978.016L1188.48 998.633L1203.46 1013.23L1182.76 1016.24L1173.5 1035Z" fill="#FEE5A5"/>
<path d="M363 714L350.95 689.585L324.007 685.67L343.503 666.665L338.901 639.83L363 652.5L387.099 639.83L382.497 666.665L401.993 685.67L375.05 689.585L363 714Z" fill="#FEE5A5"/>
<path d="M191.5 862L186.357 851.281L174.857 849.562L183.178 841.219L181.214 829.438L191.5 835L201.786 829.438L199.822 841.219L208.143 849.562L196.643 851.281L191.5 862Z" fill="#00CB8E"/>
<path d="M125 1436L110.599 1406.82L78.3982 1402.14L101.699 1379.43L96.1985 1347.36L125 1362.5L153.801 1347.36L148.301 1379.43L171.602 1402.14L139.401 1406.82L125 1436Z" fill="#FEE5A5"/>
<path d="M863.5 1332L858.357 1321.28L846.857 1319.56L855.178 1311.22L853.214 1299.44L863.5 1305L873.786 1299.44L871.822 1311.22L880.143 1319.56L868.643 1321.28L863.5 1332Z" fill="#FFE1DB"/>
<rect opacity="0.8" y="-6" width="1278" height="1518" fill="#FAFCF3"/>
</g>
<defs>
<clipPath id="clip0_55_2">
<rect width="1167" height="1459" fill="white"/>
</clipPath>
</defs>
</svg>
